<svg width="44" height="41" viewBox="0 0 44 41" fill="none" xmlns="http://www.w3.org/2000/svg">
<g clip-path="url(#clip0_1_45)">
<path d="M43.7372 20.4526C43.7372 9.53558 34.0244 0.685425 22.0433 0.685425C10.0622 0.685425 0.349518 9.53543 0.349518 20.4526C0.349518 30.319 8.28268 38.4969 18.6537 39.9797V26.1666H13.1455V20.4526H18.6537V16.0977C18.6537 11.1435 21.8925 8.40699 26.8477 8.40699C29.2213 8.40699 31.7039 8.79307 31.7039 8.79307V13.6577H28.9684C26.2733 13.6577 25.433 15.1814 25.433 16.7447V20.4526H31.4496L30.4878 26.1666H25.433V39.9797C35.804 38.4969 43.7372 30.3191 43.7372 20.4526Z" fill="white"/>
</g>
<defs>
<clipPath id="clip0_1_45">
<rect width="43.3876" height="39.5344" fill="white" transform="translate(0.349609 0.685425)"/>
</clipPath>
</defs>
</svg>
