<svg width="42" height="39" viewBox="0 0 42 39" fill="none" xmlns="http://www.w3.org/2000/svg">
<path d="M37.5401 1.39467H4.54768C3.7991 1.3875 3.07808 1.65989 2.54281 2.15207C2.00755 2.64424 1.70177 3.316 1.69257 4.01994V35.1712C1.70343 35.8741 2.00995 36.5443 2.54503 37.0352C3.08011 37.5261 3.80019 37.7976 4.54768 37.7905H37.5401C38.2887 37.796 39.0092 37.5227 39.5442 37.0303C40.0792 36.5378 40.3852 35.8662 40.3952 35.1622V4.01099C40.3818 3.30911 40.0744 2.64056 39.5398 2.15064C39.0052 1.66073 38.2865 1.38905 37.5401 1.39467Z" fill="white"/>
<path d="M7.42178 15.0371H13.1669V32.4205H7.42178V15.0371ZM10.2959 6.38562C10.9549 6.38562 11.599 6.56941 12.1468 6.91374C12.6947 7.25806 13.1216 7.74746 13.3736 8.32001C13.6257 8.89256 13.6914 9.52254 13.5627 10.1302C13.4339 10.738 13.1163 11.2961 12.6502 11.7341C12.184 12.172 11.5902 12.4701 10.9438 12.5906C10.2975 12.7112 9.62762 12.6487 9.01903 12.4112C8.41043 12.1736 7.89042 11.7717 7.52479 11.2562C7.15916 10.7406 6.96434 10.1347 6.96497 9.51506C6.96581 8.68481 7.31712 7.88883 7.9417 7.30203C8.56629 6.71523 9.41305 6.38562 10.2959 6.38562ZM16.7707 15.0371H22.2779V17.4237H22.354C23.1217 16.0574 24.9934 14.6164 27.7882 14.6164C33.6063 14.6045 34.6849 18.2053 34.6849 22.8741V32.4205H28.9398V23.963C28.9398 21.9493 28.9017 19.3568 25.9546 19.3568C23.0075 19.3568 22.5063 21.5525 22.5063 23.8317V32.4205H16.7707V15.0371Z" fill="#5A301D"/>
</svg>
