<svg width="63" height="63" viewBox="0 0 63 63" fill="none" xmlns="http://www.w3.org/2000/svg">
<g id="playstore-svgrepo-com 1" clip-path="url(#clip0_1_18)">
<g id="Group">
<path id="Vector" d="M46.8832 21.5333C39.5904 17.4544 27.8854 10.9045 9.72988 0.73885C8.50584 -0.0695338 7.09751 -0.175471 5.88071 0.236384L37.0304 31.3861L46.8832 21.5333Z" fill="#32BBFF"/>
<path id="Vector_2" d="M5.88067 0.236328C5.65261 0.313574 5.43068 0.406759 5.21844 0.519318C3.87473 1.24616 2.88733 2.6448 2.88733 4.41373V58.3583C2.88733 60.1272 3.8746 61.5259 5.21844 62.2526C5.43031 62.365 5.65212 62.4586 5.87993 62.5363L37.0304 31.386L5.88067 0.236328Z" fill="#32BBFF"/>
<path id="Vector_3" d="M37.0307 31.3861L5.88028 62.5364C7.09745 62.9513 8.50578 62.8535 9.73019 62.0333C27.3371 52.1741 38.9102 45.7018 46.2873 41.5882C46.4927 41.4728 46.6939 41.36 46.8928 41.2483L37.0307 31.3861Z" fill="#32BBFF"/>
</g>
<path id="Vector_4" d="M2.88727 31.3862V58.3585C2.88727 60.1274 3.87454 61.5261 5.21838 62.2528C5.43025 62.3652 5.65206 62.4588 5.87987 62.5365L37.0303 31.3862H2.88727Z" fill="#2C9FD9"/>
<path id="Vector_5" d="M9.73006 0.739097C8.27649 -0.220714 6.56237 -0.193371 5.21866 0.519743L36.5578 31.859L46.8832 21.5336C39.5906 17.4546 27.8855 10.9048 9.73006 0.739097Z" fill="#29CC5E"/>
<path id="Vector_6" d="M36.558 30.9138L5.21866 62.2529C6.56249 62.9659 8.27649 63.0071 9.73006 62.0336C27.337 52.1743 38.9101 45.7021 46.2872 41.5885C46.4926 41.4731 46.6938 41.3603 46.8927 41.2486L36.558 30.9138Z" fill="#D93F21"/>
<path id="Vector_7" d="M59.8902 31.3863C59.8902 29.8916 59.136 28.3832 57.6412 27.5468C57.6412 27.5468 54.8458 25.987 46.2773 21.1943L36.0854 31.3863L46.2872 41.5882C54.7617 36.83 57.6411 35.2256 57.6411 35.2256C59.136 34.3893 59.8902 32.8809 59.8902 31.3863Z" fill="#FFD500"/>
<path id="Vector_8" d="M57.6412 35.2257C59.136 34.3893 59.8902 32.8809 59.8902 31.3862H36.0854L46.2872 41.5882C54.7618 36.8301 57.6412 35.2257 57.6412 35.2257Z" fill="#FFAA00"/>
</g>
<defs>
<clipPath id="clip0_1_18">
<rect width="62.7774" height="62.7774" fill="white"/>
</clipPath>
</defs>
</svg>
